<?xml version="1.0" encoding="utf-8"?>
<!-- Generator: Adobe Illustrator 21.0.0, SVG Export Plug-In . SVG Version: 6.00 Build 0)  -->
<svg version="1.1" id="Слой_1" xmlns="http://www.w3.org/2000/svg" xmlns:xlink="http://www.w3.org/1999/xlink" x="0px" y="0px"
	 viewBox="0 0 64 64" style="enable-background:new 0 0 64 64;" xml:space="preserve">
<style type="text/css">
	.st0{fill:#F8F7F7;}
	.st1{fill:#DDDDDD;}
	.st2{fill:#EEEDED;}
	.st3{fill:#CDCCCC;}
	.st4{fill:#EFEFEF;}
	.st5{fill:#6E6E6E;}
	.st6{fill:#4D4D4D;}
</style>
<ellipse class="st0" cx="31.893" cy="56.689" rx="29.835" ry="7.311"/>
<g>
	<rect x="13.647" y="22.659" class="st1" width="36.495" height="9.123"/>
	<polyline class="st2" points="45.579,26.57 49.49,22.659 50.791,22.659 50.791,31.781 49.49,31.781 45.579,26.57 	"/>
	<path class="st3" d="M45.579,26.57v5.212h3.911L45.579,26.57z M45.579,26.57"/>
	<polyline class="st2" points="18.206,26.57 14.3,22.659 12.995,22.659 12.995,31.781 14.3,31.781 18.206,26.57 	"/>
	<path class="st3" d="M18.206,26.57v5.212H14.3L18.206,26.57z M18.206,26.57"/>
	<path class="st4" d="M48.353,57.849H15.432c-1.346,0-2.437-1.092-2.437-2.437v-23.63h37.796v23.63
		C50.791,56.757,49.7,57.849,48.353,57.849L48.353,57.849z M48.353,57.849"/>
	<path class="st5" d="M26.028,36.997c0,1.079-0.875,1.953-1.953,1.953c-1.083,0-1.958-0.875-1.958-1.953
		c0-1.083,0.875-1.957,1.958-1.957C25.153,35.04,26.028,35.915,26.028,36.997L26.028,36.997z M26.028,36.997"/>
	<path class="st5" d="M41.668,36.997c0,1.079-0.875,1.953-1.953,1.953c-1.082,0-1.957-0.875-1.957-1.953
		c0-1.083,0.876-1.957,1.957-1.957C40.793,35.04,41.668,35.915,41.668,36.997L41.668,36.997z M41.668,36.997"/>
	<path class="st3" d="M31.893,49.379c-4.671,0-8.47-3.803-8.47-8.474v-3.907c0-0.363,0.289-0.652,0.652-0.652
		c0.359,0,0.648,0.289,0.648,0.652v3.907c0,3.956,3.218,7.169,7.169,7.169c3.952,0,7.169-3.214,7.169-7.169v-3.907
		c0-0.363,0.292-0.652,0.652-0.652c0.359,0,0.653,0.289,0.653,0.652v3.907C40.367,45.576,36.564,49.379,31.893,49.379L31.893,49.379
		z M31.893,49.379"/>
</g>
<g>
	<path class="st5" d="M31.909,9.698L31.909,9.698c-0.246,0-0.446,0.2-0.446,0.446v7.589c0,0.246,0.2,0.446,0.446,0.446h0
		c0.246,0,0.446-0.2,0.446-0.446v-7.589C32.355,9.898,32.155,9.698,31.909,9.698z"/>
	<path class="st5" d="M21.406,13.078L21.406,13.078c-0.174,0.174-0.174,0.456,0,0.63L25,17.303c0.174,0.174,0.456,0.174,0.63,0h0
		c0.174-0.174,0.174-0.456,0-0.63l-3.594-3.594C21.862,12.904,21.58,12.904,21.406,13.078z"/>
	<path class="st5" d="M42.379,13.053L42.379,13.053c0.174,0.174,0.174,0.456,0,0.63l-3.594,3.594c-0.174,0.174-0.456,0.174-0.63,0
		l0,0c-0.174-0.174-0.174-0.456,0-0.63l3.594-3.594C41.923,12.879,42.205,12.879,42.379,13.053z"/>
</g>
<circle class="st5" cx="16.217" cy="16.452" r="0.616"/>
<circle class="st5" cx="46.918" cy="18.082" r="0.616"/>
<g>
	<path class="st5" d="M18.18,3.231L18.18,3.231c-0.193,0-0.35,0.157-0.35,0.35v2.28c0,0.193,0.157,0.35,0.35,0.35l0,0
		c0.193,0,0.35-0.157,0.35-0.35v-2.28C18.53,3.388,18.373,3.231,18.18,3.231z"/>
	<path class="st5" d="M19.697,4.748L19.697,4.748c0-0.193-0.157-0.35-0.35-0.35h-2.28c-0.193,0-0.35,0.157-0.35,0.35v0
		c0,0.193,0.157,0.35,0.35,0.35h2.28C19.54,5.098,19.697,4.941,19.697,4.748z"/>
</g>
<g>
	<path class="st5" d="M44.062,7.728L44.062,7.728c-0.193,0-0.35,0.157-0.35,0.35v2.28c0,0.193,0.157,0.35,0.35,0.35l0,0
		c0.193,0,0.35-0.157,0.35-0.35v-2.28C44.412,7.884,44.255,7.728,44.062,7.728z"/>
	<path class="st5" d="M45.579,9.244L45.579,9.244c0-0.193-0.157-0.35-0.35-0.35h-2.28c-0.193,0-0.35,0.157-0.35,0.35l0,0
		c0,0.193,0.157,0.35,0.35,0.35h2.28C45.422,9.594,45.579,9.438,45.579,9.244z"/>
</g>
<path class="st6" d="M38.843,2.192c-0.599,0-1.086-0.487-1.086-1.086c0-0.599,0.487-1.086,1.086-1.086
	c0.599,0,1.086,0.487,1.086,1.086C39.929,1.704,39.442,2.192,38.843,2.192z M38.843,0.63c-0.262,0-0.475,0.213-0.475,0.475
	c0,0.262,0.213,0.475,0.475,0.475c0.262,0,0.475-0.213,0.475-0.475C39.318,0.844,39.105,0.63,38.843,0.63z"/>
<path class="st6" d="M26.304,8.814c-0.599,0-1.086-0.487-1.086-1.086c0-0.599,0.487-1.086,1.086-1.086
	c0.599,0,1.086,0.487,1.086,1.086C27.39,8.326,26.903,8.814,26.304,8.814z M26.304,7.252c-0.262,0-0.475,0.213-0.475,0.475
	c0,0.262,0.213,0.475,0.475,0.475c0.262,0,0.475-0.213,0.475-0.475C26.779,7.466,26.566,7.252,26.304,7.252z"/>
</svg>
